<?xml version="1.0" encoding="utf-8"?>
<!-- Generator: Adobe Illustrator 19.2.0, SVG Export Plug-In . SVG Version: 6.00 Build 0)  -->
<svg version="1.1" id="Capa_1" xmlns="http://www.w3.org/2000/svg" xmlns:xlink="http://www.w3.org/1999/xlink" x="0px" y="0px"
	 viewBox="0 0 311.5 311.5" style="enable-background:new 0 0 311.5 311.5;" xml:space="preserve">
<style type="text/css">
	.st0{fill:#333333;}
</style>
<g>
	<g>
		<path class="st0" d="M155.8,0C69.7,0,0,69.7,0,155.8c0,37.5,13.3,71.9,35.3,98.8c3.4-27.3,30.6-50.3,68.8-61.2
			c13.9,13,32,20.9,51.7,20.9c19.2,0,36.9-7.5,50.7-19.9c38.5,11.9,65.1,36.3,66,64.6c24.3-27.5,39.1-63.6,39.1-103.1
			C311.5,69.7,241.8,0,155.8,0z M155.8,195.7c-9.9,0-19.3-2.7-27.6-7.5c-20.1-11.4-33.9-34.8-33.9-61.7c0-38.1,27.6-69.2,61.5-69.2
			c33.9,0,61.5,31,61.5,69.2c0,27.4-14.2,51-34.8,62.2C174.4,193.2,165.3,195.7,155.8,195.7z"/>
	</g>
</g>
</svg>
